<?xml version="1.0" encoding="UTF-8" ?>
<!DOCTYPE svg PUBLIC "-//W3C//DTD SVG 1.1//EN" "http://www.w3.org/Graphics/SVG/1.1/DTD/svg11.dtd">
<svg width="316pt" height="316pt" viewBox="0 0 316 316" version="1.1" xmlns="http://www.w3.org/2000/svg">
<path fill="#96ac3c" d=" M 80.92 98.06 C 92.42 93.86 104.86 93.08 117.00 93.34 C 130.85 93.83 144.74 95.59 158.08 99.41 C 170.39 95.89 183.16 94.18 195.93 93.45 C 209.02 92.95 222.47 93.51 234.94 97.91 C 241.36 100.20 243.63 107.78 243.59 113.98 C 243.53 125.85 239.03 137.21 233.90 147.72 C 239.87 142.56 248.62 142.18 255.58 145.48 C 260.88 148.07 266.78 151.05 269.32 156.72 C 272.61 164.12 268.58 172.92 262.52 177.57 C 258.95 180.37 254.23 179.45 250.06 179.30 C 251.68 180.04 253.31 180.76 254.94 181.48 C 253.58 190.98 252.05 200.46 250.84 209.97 C 250.38 213.36 249.67 217.31 246.62 219.35 C 243.12 219.96 239.54 219.58 236.00 219.65 C 184.02 219.64 132.03 219.64 80.04 219.66 C 76.53 219.57 72.96 219.97 69.49 219.34 C 67.00 217.60 66.20 214.41 65.68 211.59 C 64.17 201.58 62.76 191.55 61.30 181.54 C 62.91 180.80 64.52 180.07 66.12 179.32 C 61.70 179.57 56.63 180.30 53.03 177.06 C 47.49 172.29 43.63 163.91 46.87 156.80 C 49.27 151.34 54.83 148.41 59.87 145.83 C 66.95 142.24 76.17 142.26 82.28 147.77 C 77.24 137.18 72.73 125.87 72.63 113.98 C 72.70 107.89 74.71 100.53 80.92 98.06 Z" />
</svg>
